<svg xmlns="http://www.w3.org/2000/svg" width="1280" height="1280" viewBox="0 0 1280 1280" version="1.1">
	<path d="M 0.090 66.750 C 0.172 127.600, 0.305 132.793, 1.596 125.500 C 12.921 61.526, 61.526 12.921, 125.500 1.596 C 132.793 0.305, 127.600 0.172, 66.750 0.090 L 0 0 0.090 66.750 M 1154.500 1.596 C 1218.474 12.921, 1267.079 61.526, 1278.404 125.500 C 1279.695 132.793, 1279.828 127.600, 1279.910 66.750 L 1280 0 1213.250 0.090 C 1152.400 0.172, 1147.207 0.305, 1154.500 1.596 M 369.358 419 C 369.654 420.375, 370.391 424.650, 370.995 428.500 C 372.645 439.016, 377.715 459.648, 380.088 465.500 C 380.534 466.600, 381.555 469.529, 382.356 472.009 C 389.688 494.704, 404.323 522.250, 418.420 539.888 C 435.933 561.801, 460.564 577.059, 484.798 581.008 C 497.966 583.153, 527.057 582.019, 534.500 579.070 C 535.600 578.634, 538.300 577.735, 540.500 577.072 C 546.635 575.225, 548.677 574.317, 560.051 568.383 C 565.347 565.620, 574.886 555.919, 577.299 550.841 C 579.937 545.291, 579.804 543.972, 575.742 535.349 C 569.083 521.211, 553.036 512.043, 519.500 503.218 C 511.697 501.164, 506.455 499.824, 503 499 C 501.075 498.541, 497.700 497.676, 495.500 497.078 C 493.300 496.481, 486.775 494.839, 481 493.429 C 475.225 492.020, 468.925 490.410, 467 489.851 C 465.075 489.293, 462.257 488.596, 460.738 488.302 C 459.219 488.009, 457.729 487.371, 457.429 486.885 C 457.128 486.398, 455.874 486, 454.641 486 C 453.408 486, 451.973 485.628, 451.450 485.174 C 450.928 484.720, 448.475 483.735, 446 482.987 C 438.684 480.775, 427.231 475.572, 417.578 470.075 C 398.052 458.955, 380.833 441.144, 371.904 422.830 C 370.207 419.348, 369.061 417.625, 369.358 419 M 927.394 422.669 C 923.682 430.673, 913.915 443.804, 905.864 451.613 C 892.892 464.196, 873.062 476.253, 856 481.931 C 852.425 483.121, 848.719 484.523, 847.764 485.047 C 846.809 485.571, 845.148 486, 844.073 486 C 842.998 486, 841.840 486.450, 841.500 487 C 841.160 487.550, 839.810 488, 838.500 488 C 837.190 488, 835.872 488.398, 835.571 488.885 C 835.271 489.371, 833.781 490.019, 832.262 490.323 C 830.743 490.628, 827.700 491.334, 825.500 491.893 C 823.300 492.452, 817.450 493.862, 812.500 495.027 C 801.699 497.570, 796.824 498.752, 791.500 500.118 C 789.300 500.683, 786.033 501.387, 784.241 501.683 C 782.448 501.979, 780.734 502.621, 780.432 503.110 C 780.129 503.600, 778.990 504, 777.900 504 C 775.936 504, 767.900 506.343, 756.682 510.186 C 742.871 514.917, 731.534 522.724, 725.854 531.414 C 717.870 543.629, 718.531 549.570, 729.045 560.103 C 733.947 565.013, 738.017 567.897, 744.920 571.353 C 750.026 573.909, 755.031 576, 756.043 576 C 757.054 576, 758.160 576.450, 758.500 577 C 758.840 577.550, 760.126 578, 761.359 578 C 762.592 578, 764.028 578.385, 764.550 578.855 C 766.141 580.286, 785.862 582.336, 796.945 582.222 C 819.542 581.990, 835.524 577.041, 854.544 564.385 C 876.405 549.838, 900.378 516.594, 912.511 484 C 913.432 481.525, 914.570 478.600, 915.039 477.500 C 917.034 472.826, 922.812 454.143, 925.081 445.033 C 926.492 439.369, 929.834 419.609, 929.455 419.169 C 929.299 418.987, 928.371 420.562, 927.394 422.669 M 594.400 638.928 C 576.556 643.933, 558.905 657.465, 536.940 682.981 C 509.525 714.828, 495.188 727.028, 478.417 732.781 C 471.120 735.283, 452.379 738.631, 441 739.464 C 430.926 740.202, 416.671 738.826, 409 736.375 C 403.101 734.490, 387.522 726.754, 384.921 724.418 C 384.053 723.638, 383.005 723, 382.593 723 C 380.950 723, 365.942 710.040, 356.600 700.553 C 351.155 695.024, 342.251 684.875, 336.814 678 C 331.376 671.125, 325.595 663.925, 323.965 662 L 321.003 658.500 321.580 661.500 C 322.162 664.535, 322.440 665.315, 325.499 672.500 C 328.669 679.945, 334.847 691.764, 337 694.500 C 337.433 695.050, 338.783 697.300, 340.001 699.500 C 347.665 713.348, 373.182 741.342, 388.500 752.707 C 416.299 773.331, 443.559 782.520, 476.500 782.369 C 492.999 782.293, 501.149 780.922, 513.408 776.162 C 532.870 768.605, 544.420 759.580, 572.502 729.986 C 594.570 706.730, 605.629 699.686, 624.988 696.555 C 636.145 694.750, 640.081 692.032, 643.893 683.500 C 644.630 681.850, 645.631 679.719, 646.117 678.764 C 646.603 677.809, 647 676.172, 647 675.128 C 647 674.083, 647.614 672.044, 648.365 670.597 L 649.730 667.966 650.962 672.733 C 654.374 685.939, 660.094 694.953, 666.266 696.849 C 668.045 697.395, 672.192 698.148, 675.482 698.522 C 682.981 699.374, 690.508 702.160, 699.500 707.412 C 704.930 710.583, 711.995 717.015, 731 736.086 C 756.151 761.325, 763.034 766.964, 777.712 774.355 C 793.789 782.451, 815.664 786.193, 834.369 784.048 C 855.583 781.614, 869.276 777.828, 885.052 770.034 C 903.536 760.902, 913.913 753.278, 930.568 736.591 C 943.973 723.160, 953.853 710.530, 962.713 695.500 C 968.905 684.996, 971.008 680.730, 976.024 668.500 C 977.540 664.803, 978.133 660.800, 977.066 661.459 C 976.508 661.804, 972.261 667.129, 967.629 673.293 C 962.996 679.457, 956.537 687.425, 953.276 691 C 950.015 694.575, 946.481 698.556, 945.423 699.847 C 941.336 704.835, 924.105 719.529, 916 724.938 C 891.715 741.144, 874.478 744.427, 841.500 739.126 C 822.108 736.008, 816.686 734.060, 804 725.648 C 797.255 721.176, 777.943 702.899, 768.961 692.488 C 738.783 657.506, 723.908 645.552, 704.356 640.567 C 688.544 636.535, 674.395 639.710, 658.170 650.931 C 654.139 653.719, 650.534 656, 650.160 656 C 649.786 656, 648.359 654.965, 646.990 653.700 C 642.910 649.932, 632.820 643.478, 628 641.553 C 616.158 636.826, 605.002 635.954, 594.400 638.928 M 610.403 738.391 C 610.017 739.398, 610.285 745.293, 610.999 751.491 C 612.301 762.796, 612.013 779.957, 610.008 810.500 C 607.069 855.286, 606.896 861.215, 607.956 880.713 C 609.033 900.513, 609.975 910.939, 611.957 925 C 612.539 929.125, 613.419 935.425, 613.914 939 C 614.408 942.575, 616.262 953.600, 618.034 963.500 C 621.285 981.660, 622.177 986.296, 624 994.500 C 624.550 996.975, 625.424 1000.913, 625.942 1003.250 C 627.514 1010.338, 628.839 1016.005, 631.499 1027 C 632.896 1032.775, 634.531 1039.750, 635.134 1042.500 C 635.736 1045.250, 636.485 1048.175, 636.798 1049 C 637.111 1049.825, 638.099 1053.397, 638.994 1056.937 C 641.326 1066.166, 642.136 1065.941, 645.974 1055 C 646.649 1053.075, 647.588 1050.600, 648.060 1049.500 C 648.532 1048.400, 650.757 1041.875, 653.003 1035 C 655.250 1028.125, 657.518 1021.719, 658.044 1020.764 C 658.570 1019.809, 659 1018.340, 659 1017.500 C 659 1016.660, 659.406 1015.191, 659.903 1014.236 C 660.399 1013.281, 661.350 1010.475, 662.017 1008 C 662.683 1005.525, 663.589 1002.600, 664.031 1001.500 C 664.472 1000.400, 665.122 998.375, 665.476 997 C 665.829 995.625, 667.029 991.125, 668.142 987 C 669.254 982.875, 670.386 978.375, 670.658 977 C 670.929 975.625, 671.533 973.600, 672 972.500 C 672.467 971.400, 673.128 969.150, 673.469 967.500 C 674.048 964.700, 674.483 962.901, 677.096 952.500 C 677.649 950.300, 678.511 946.475, 679.011 944 C 689.803 890.617, 691.196 867.383, 686.894 812.500 C 684.930 787.441, 685.472 765.566, 688.612 743.250 C 688.941 740.913, 688.914 739, 688.552 739 C 688.190 739, 685.354 741.743, 682.250 745.097 C 676.544 751.259, 666.247 759, 663.755 759 C 663.010 759, 661.837 759.563, 661.150 760.250 C 660.327 761.073, 656.687 761.500, 650.500 761.500 C 644.313 761.500, 640.673 761.073, 639.850 760.250 C 639.163 759.563, 637.990 759, 637.245 759 C 633.778 759, 619.756 747.645, 613.803 740.017 C 611.434 736.981, 611.020 736.784, 610.403 738.391 M 0.090 1213.250 L 0 1280 66.750 1279.910 C 127.600 1279.828, 132.793 1279.695, 125.500 1278.404 C 61.526 1267.079, 12.921 1218.474, 1.596 1154.500 C 0.305 1147.207, 0.172 1152.400, 0.090 1213.250 M 1278.978 1149.750 C 1278.949 1153.429, 1275.492 1168.929, 1272.899 1177 C 1271.751 1180.575, 1267.949 1189.350, 1264.451 1196.500 C 1243.274 1239.781, 1202.935 1269.830, 1154.500 1278.404 C 1147.207 1279.695, 1152.400 1279.828, 1213.250 1279.910 L 1280 1280 1280 1213.500 C 1280 1176.925, 1279.775 1147, 1279.500 1147 C 1279.225 1147, 1278.990 1148.237, 1278.978 1149.750" stroke="none" fill="black" fill-rule="evenodd"/>
</svg>