<svg xmlns="http://www.w3.org/2000/svg" width="1280" height="1280" viewBox="0 0 1280 1280" version="1.1">
	<path d="M -0 640.001 L -0 1280.002 640.250 1279.751 L 1280.500 1279.500 1280.751 639.750 L 1281.002 0 640.501 0 L 0 0 -0 640.001 M 0.497 640.500 C 0.497 992.500, 0.611 1136.351, 0.750 960.168 C 0.889 783.985, 0.889 495.985, 0.750 320.168 C 0.611 144.351, 0.497 288.500, 0.497 640.500 M 590 365.014 C 586.975 365.428, 581.125 366.756, 577 367.966 C 572.875 369.175, 568.600 370.426, 567.500 370.745 C 563.651 371.861, 564.119 373.426, 569.357 376.963 C 582.677 385.955, 596.105 407.053, 598.977 423.500 C 599.649 427.350, 600.555 438.600, 600.991 448.500 C 601.789 466.632, 603.934 479.591, 608.854 496 C 609.925 499.575, 612.007 507.225, 613.480 513 C 614.952 518.775, 616.769 525.345, 617.516 527.601 C 618.812 531.511, 622.588 548.247, 624.826 560 C 628.550 579.552, 630.939 599.269, 631.065 611.500 C 631.110 615.834, 631.363 616.914, 631.979 615.391 C 633.316 612.082, 634.943 572.315, 635.022 541 C 635.061 525.325, 635.521 496.300, 636.044 476.500 C 637.510 420.964, 637.353 417.151, 633.086 404.751 C 628.444 391.256, 617.862 374.974, 609.852 369 C 603.108 363.970, 600.892 363.525, 590 365.014 M 677.500 365.375 C 672.853 367.584, 657 383.824, 657 386.374 C 657 386.670, 655.718 389.086, 654.152 391.743 C 649.997 398.789, 647.473 406.231, 645.509 417.227 C 643.986 425.757, 643.905 429.017, 644.855 443.727 C 645.450 452.952, 646.208 489.180, 646.539 524.233 C 646.870 559.286, 647.288 589.211, 647.468 590.733 C 647.648 592.255, 648.120 598.635, 648.517 604.912 C 648.915 611.188, 649.577 615.688, 649.990 614.912 C 650.403 614.135, 651.270 606.525, 651.917 598 C 653.214 580.925, 654.279 572.537, 656.681 560.500 C 658.913 549.317, 662.767 532.171, 663.987 528 C 666.861 518.166, 674.195 491.584, 676.126 484 C 679.200 471.922, 680.257 463.397, 680.958 445 C 681.491 431.015, 682.271 422.607, 683.411 418.544 C 685.232 412.052, 691.697 398.498, 695.023 394.199 C 698.903 389.184, 711.190 377.001, 714.105 375.279 C 715.697 374.338, 717 373.061, 717 372.439 C 717 370.906, 695.066 365.061, 687 364.445 C 682.533 364.103, 679.562 364.394, 677.500 365.375 M 537.928 378.899 C 523.711 383.466, 500.335 398.334, 496.285 405.385 C 493.897 409.544, 494.805 413.204, 500.035 420.500 C 502.795 424.350, 505.825 428.625, 506.768 430 C 507.712 431.375, 511.658 437, 515.537 442.500 C 519.417 448, 527.925 460.375, 534.444 470 C 555.331 500.839, 568.196 517.103, 586.031 535.213 C 601.183 550.600, 605 553.776, 605 550.994 C 605 550.441, 602.017 543.604, 598.372 535.801 C 583.875 504.770, 576 480.609, 576 467.164 C 576 446.752, 564.528 398.179, 557.036 386.868 C 550.830 377.499, 547.113 375.949, 537.928 378.899 M 730.997 379.656 C 727.731 382.404, 722.455 390.893, 720.218 397 C 712.586 417.831, 707.972 439.584, 705.997 464.043 C 705.415 471.247, 704.278 479.988, 703.471 483.468 C 700.501 496.274, 691.360 519.660, 680.602 541.972 C 674.119 555.418, 675.489 555.260, 690.504 540.826 C 710.541 521.563, 723.884 504.837, 748.695 467.876 C 756.838 455.746, 768.823 438.324, 775.328 429.161 C 788.535 410.558, 788.934 409.228, 783.305 402.596 C 776.836 394.975, 758.989 384.031, 746.500 380.027 C 744.300 379.321, 741.466 378.352, 740.203 377.872 C 736.441 376.444, 734.328 376.853, 730.997 379.656 M 449.558 532.209 C 449.174 533.469, 448.629 543.275, 448.347 554 C 447.230 596.452, 455.845 634.060, 472.716 660.378 C 482.224 675.210, 498.056 687, 508.464 687 C 512 687, 513.672 684.806, 519.964 671.910 C 529.376 652.617, 534.603 646.802, 558.500 629.035 C 566.750 622.901, 574.625 617.046, 576 616.023 C 577.375 615.001, 582.212 611.429, 586.750 608.086 C 591.288 604.743, 595 601.776, 595 601.493 C 595 601.210, 591.513 602.727, 587.250 604.865 C 576.972 610.020, 562.862 614.618, 552.811 616.088 C 544.276 617.336, 527.175 616.815, 522.910 615.178 C 521.585 614.669, 518.025 613.438, 515 612.443 C 504.928 609.131, 496.288 603.360, 486.164 593.180 C 474.019 580.970, 463.123 562.395, 455.850 541.504 C 453.744 535.455, 451.624 530.375, 451.138 530.213 C 450.652 530.051, 449.941 530.949, 449.558 532.209 M 827.974 536.661 C 808.709 595.258, 772.523 623.421, 726.563 615.587 C 716.701 613.906, 704.117 609.627, 694.082 604.542 C 691.178 603.070, 688.618 602.049, 688.394 602.272 C 688.017 602.650, 713.152 621.656, 728 632.219 C 746.510 645.387, 756.077 656.762, 763.448 674.365 C 767.313 683.596, 770.272 687, 774.429 687 C 783.356 687, 800.407 673.613, 809.904 659.146 C 823.334 638.690, 831.877 605.213, 833.548 566.500 C 834.190 551.602, 832.965 532.565, 831.254 530.854 C 830.545 530.145, 829.519 531.960, 827.974 536.661 M 675.244 705.250 C 675.499 707.038, 677.531 715.475, 679.761 724 C 686.311 749.042, 687.379 756.821, 687.380 779.500 C 687.381 800.194, 686.661 806.207, 680.030 840.881 C 678.938 846.591, 678.286 851.654, 678.581 852.131 C 681.714 857.200, 701.311 839.948, 731.914 805.184 C 749.661 785.023, 779.674 744.522, 778.803 741.910 C 778.615 741.345, 776.670 742.152, 774.481 743.702 C 768.671 747.816, 761.170 751.535, 755.764 752.984 C 748.295 754.984, 735.600 753.905, 729.427 750.744 C 723.242 747.576, 710.264 736.046, 691.016 716.619 C 683.050 708.579, 676.138 702, 675.657 702 C 675.175 702, 674.989 703.462, 675.244 705.250 M 588.488 721.082 C 567.903 741.788, 555.376 752.341, 548.192 755.029 C 541.892 757.387, 531.680 757.799, 524.890 755.970 C 519.676 754.566, 510.809 750.140, 506.011 746.547 C 498.399 740.846, 502.501 748.741, 518.736 771.039 C 535.764 794.427, 551.815 813.013, 574.413 835.511 C 591.451 852.474, 598.233 857.710, 600.973 856.017 C 602.564 855.034, 602.479 854.350, 596.878 823 C 593.779 805.652, 593.574 803.099, 593.588 782 C 593.605 756.788, 594.524 750.302, 601.991 722.657 C 606.111 707.404, 606.553 705, 605.238 705 C 604.819 705, 597.282 712.237, 588.488 721.082" stroke="none" fill="black" fill-rule="evenodd"/>
</svg>