<svg xmlns="http://www.w3.org/2000/svg" width="1280" height="1280" viewBox="0 0 1280 1280" version="1.1">
	<path d="M -0 640.001 L -0 1280.002 640.250 1279.751 L 1280.500 1279.500 1280.751 639.750 L 1281.002 0 640.501 0 L 0 0 -0 640.001 M 0.497 640.500 C 0.497 992.500, 0.611 1136.351, 0.750 960.168 C 0.889 783.985, 0.889 495.985, 0.750 320.168 C 0.611 144.351, 0.497 288.500, 0.497 640.500 M 561.181 240.750 C 557.788 249.942, 552.159 265.484, 547.508 278.500 C 544.560 286.750, 540.501 298, 538.489 303.500 C 536.477 309, 534.449 314.625, 533.982 316 C 533.516 317.375, 531.955 321.650, 530.513 325.500 C 529.071 329.350, 527.428 334.023, 526.861 335.885 C 525.888 339.084, 520.046 354.575, 517.767 360 C 517.190 361.375, 516.589 363.175, 516.432 364 C 515.781 367.419, 510.664 380.525, 509.859 380.835 C 509.380 381.020, 509.201 381.516, 509.462 381.938 C 509.722 382.360, 509.019 385.134, 507.900 388.102 C 506.780 391.071, 505.202 395.637, 504.393 398.250 C 503.584 400.863, 502.504 403, 501.993 403 C 501.481 403, 501.322 403.675, 501.638 404.500 C 501.955 405.325, 501.730 406, 501.138 406 C 500.547 406, 500.322 406.675, 500.638 407.500 C 500.955 408.325, 500.730 409, 500.138 409 C 499.547 409, 499.294 409.603, 499.577 410.340 C 499.860 411.077, 499.400 412.253, 498.557 412.953 C 497.713 413.654, 497.256 414.606, 497.543 415.069 C 497.829 415.533, 497.308 417.619, 496.385 419.706 C 495.462 421.793, 494.604 423.950, 494.478 424.500 C 493.707 427.876, 488.313 442.740, 485.351 449.651 C 484.608 451.384, 484.002 453.184, 484.004 453.651 C 484.011 455.370, 474.564 480.511, 473.789 480.835 C 473.348 481.020, 473.198 481.511, 473.454 481.926 C 473.711 482.342, 471.914 487.972, 469.461 494.438 C 467.007 500.904, 465 506.794, 465 507.526 C 465 508.258, 464.405 509.452, 463.679 510.179 C 462.952 510.905, 462.311 511.845, 462.254 512.267 C 461.854 515.253, 460.640 519.666, 459.988 520.500 C 459.559 521.050, 458.739 523.075, 458.166 525 C 457.594 526.925, 455.721 532.325, 454.004 537 C 452.288 541.675, 450.502 546.625, 450.036 548 C 449.570 549.375, 446.847 557.025, 443.986 565 C 441.124 572.975, 438.306 580.962, 437.724 582.750 C 437.141 584.538, 436.263 586, 435.773 586 C 435.283 586, 435.115 586.377, 435.400 586.839 C 435.685 587.300, 434.561 591.237, 432.901 595.589 C 431.242 599.940, 429.028 605.975, 427.981 609 C 426.935 612.025, 424.903 617.650, 423.467 621.500 C 422.031 625.350, 420.396 630.075, 419.833 632 C 419.270 633.925, 418.208 636.850, 417.473 638.500 C 416.737 640.150, 413.988 647.575, 411.363 655 C 408.737 662.425, 406.344 668.725, 406.045 669 C 405.745 669.275, 405.434 670.175, 405.353 671 C 405.272 671.825, 403.799 676.325, 402.079 681 C 400.359 685.675, 397.778 692.875, 396.343 697 C 394.908 701.125, 393.284 705.625, 392.735 707 C 391.766 709.428, 388.240 719.056, 382.280 735.544 C 380.681 739.969, 379.112 744.019, 378.793 744.544 C 378.475 745.070, 377.746 747.075, 377.173 749 C 376.130 752.506, 370.562 768.316, 363.437 788 C 361.347 793.775, 359.230 798.775, 358.733 799.112 C 358.236 799.448, 357.919 800.027, 358.028 800.398 C 358.307 801.343, 353.878 814.971, 352.308 818 C 351.595 819.375, 351.010 821.107, 351.006 821.849 C 351.003 822.591, 350.355 824.616, 349.567 826.349 C 348.780 828.082, 347.453 831.525, 346.619 834 C 343.306 843.832, 336.112 863.804, 334.010 869 C 332.787 872.025, 331.117 876.750, 330.300 879.500 C 329.482 882.250, 328.210 885.850, 327.472 887.500 C 326.735 889.150, 325.028 893.650, 323.678 897.500 C 322.329 901.350, 319.355 909.675, 317.069 916 C 314.784 922.325, 311.406 931.775, 309.564 937 C 306.258 946.378, 301.987 957.845, 300.533 961.250 C 299.825 962.908, 303.804 963, 376.143 963 L 452.500 963 478.343 885.500 L 504.186 808 637.021 808 L 769.856 808 771.785 813.250 C 772.846 816.138, 784.465 850.997, 797.607 890.715 L 821.500 962.929 899.696 962.965 L 977.892 963 976.061 957.750 C 973.859 951.440, 717.461 242.258, 716.474 239.750 C 715.827 238.105, 711.200 238, 638.991 238 L 562.196 238 561.181 240.750" stroke="none" fill="black" fill-rule="evenodd"/>
</svg>