<svg xmlns="http://www.w3.org/2000/svg" width="1280" height="1280" viewBox="0 0 1280 1280" version="1.1">
	<path d="M -0 640.001 L -0 1280.002 640.250 1279.751 L 1280.500 1279.500 1280.751 639.750 L 1281.002 0 640.501 0 L 0 0 -0 640.001 M 0.497 640.500 C 0.497 992.500, 0.611 1136.351, 0.750 960.168 C 0.889 783.985, 0.889 495.985, 0.750 320.168 C 0.611 144.351, 0.497 288.500, 0.497 640.500 M 607.665 294.469 C 593.404 296.271, 577.409 299.560, 567.500 302.729 C 518.048 318.542, 481.024 348.372, 452.654 395.261 C 444.642 408.503, 435.654 426.632, 436.457 427.931 C 436.785 428.461, 439.853 430.410, 443.276 432.263 C 446.699 434.116, 453.502 437.965, 458.393 440.816 C 463.285 443.667, 467.447 446, 467.643 446 C 467.838 446, 474.411 449.663, 482.249 454.139 C 490.087 458.616, 498.975 463.631, 502 465.284 C 505.025 466.937, 510.069 469.774, 513.208 471.589 L 518.916 474.888 525.582 462.062 C 539.448 435.379, 555.580 418.748, 578.980 407.013 C 591.568 400.701, 602.986 397.187, 617 395.313 C 635.913 392.784, 655.799 394.511, 672.139 400.102 C 701.814 410.257, 722.475 432.772, 727.102 460 C 728.767 469.799, 728.255 486.700, 726.027 495.500 C 719.470 521.395, 700.848 539.318, 674 545.574 C 667.477 547.094, 659.368 547.374, 611.750 547.729 L 557 548.137 557 598.568 L 557 649 609.776 649 C 672.662 649, 682.556 649.882, 700.295 657.066 C 729.312 668.819, 744.808 698.574, 741.100 735.418 C 739.679 749.535, 737.786 756.622, 732.518 767.544 C 727.742 777.447, 719.115 787.718, 709.113 795.412 C 690.688 809.583, 661.347 817.343, 629.688 816.417 C 586.340 815.148, 551.083 797, 526.886 763.500 C 520.047 754.031, 512.478 739.525, 506.142 723.740 L 505.034 720.981 489.767 728.865 C 481.370 733.201, 463.700 742.362, 450.500 749.223 C 437.300 756.084, 424.813 762.491, 422.750 763.462 C 420.688 764.433, 419 765.774, 419 766.442 C 419 768.534, 423.854 780.025, 430.007 792.500 C 455 843.172, 487.697 877.265, 531.146 897.954 C 578.076 920.300, 641.130 925.990, 698 913.009 C 732.085 905.229, 765.218 888.849, 788.865 868.088 C 808.183 851.127, 826.782 822.353, 834.814 797 C 841.530 775.800, 843.413 760.662, 842.711 733.502 C 842.120 710.646, 839.990 697.339, 834.470 682 C 821.262 645.302, 794.419 615.714, 762.317 602.470 C 751.360 597.949, 749.506 594.674, 756.322 591.881 C 768.180 587.022, 784.795 575.242, 794.564 564.768 C 818.341 539.278, 829.922 506.481, 829.980 464.474 C 830.032 427.327, 821.079 396.144, 802.130 367.469 C 784.912 341.414, 756.632 320.391, 720.500 306.786 C 712.941 303.940, 710.472 303.148, 697.750 299.491 C 694.862 298.661, 687.100 297.036, 680.500 295.880 C 664.954 293.157, 624.284 292.369, 607.665 294.469" stroke="none" fill="black" fill-rule="evenodd"/>
</svg>