<svg xmlns="http://www.w3.org/2000/svg" width="2160" height="2160" viewBox="0 0 2160 2160" version="1.1">
	<path d="M 0 1080 L 0 2160.001 1080.250 2159.750 L 2160.500 2159.500 2160.750 1079.750 L 2161.001 0 1080.500 0 L 0 0 0 1080 M 0.498 1080.500 C 0.498 1674.500, 0.611 1917.350, 0.750 1620.167 C 0.889 1322.984, 0.889 836.984, 0.750 540.167 C 0.611 243.350, 0.498 486.500, 0.498 1080.500 M 380.254 895.250 C 379.709 895.938, 378.695 899.650, 378 903.500 C 377.305 907.350, 376.405 910.950, 376 911.500 C 375.595 912.050, 374.695 915.650, 373.999 919.500 C 373.304 923.350, 372.457 926.950, 372.117 927.500 C 371.778 928.050, 370.812 931.875, 369.972 936 L 368.444 943.500 322.722 943.760 L 277 944.020 277 987.010 L 277 1030 312.045 1030 L 347.091 1030 346.415 1033.750 C 346.043 1035.813, 345.407 1037.950, 345.001 1038.500 C 344.596 1039.050, 343.695 1042.650, 343 1046.500 C 342.305 1050.350, 341.397 1053.950, 340.983 1054.500 C 340.568 1055.050, 339.670 1058.860, 338.988 1062.967 C 338.305 1067.074, 337.380 1071.124, 336.933 1071.967 C 336.487 1072.810, 335.860 1074.737, 335.541 1076.250 L 334.962 1079 292.101 1079 L 249.240 1079 248.783 1085.250 C 248.531 1088.688, 248.540 1108.037, 248.802 1128.250 L 249.279 1165 281.139 1165 C 302.866 1165, 313 1165.336, 313 1166.057 C 313 1168.679, 310.629 1181.602, 309.983 1182.500 C 309.587 1183.050, 308.695 1186.650, 308 1190.500 C 307.305 1194.350, 306.388 1197.950, 305.962 1198.500 C 305.536 1199.050, 304.868 1201.643, 304.478 1204.262 C 304.088 1206.882, 303.371 1209.271, 302.885 1209.571 C 302.398 1209.872, 302 1210.766, 302 1211.559 C 302 1212.796, 309.650 1213, 356 1213 L 410 1213 410 1210.700 C 410 1209.435, 410.391 1207.972, 410.869 1207.450 C 411.347 1206.927, 412.535 1202.225, 413.509 1197 C 414.482 1191.775, 415.624 1187.050, 416.046 1186.500 C 416.468 1185.950, 417.132 1183.357, 417.522 1180.738 C 417.912 1178.118, 418.587 1175.755, 419.022 1175.487 C 419.457 1175.218, 420.122 1172.748, 420.500 1169.999 L 421.188 1165 459.682 1165 L 498.176 1165 497.464 1169.212 C 497.073 1171.528, 496.377 1174.115, 495.917 1174.962 C 495.177 1176.323, 493.291 1183.841, 492.641 1188.018 C 492.512 1188.852, 492.149 1189.977, 491.835 1190.518 C 491.522 1191.058, 490.696 1194.650, 490.001 1198.500 C 489.305 1202.350, 488.406 1205.950, 488.002 1206.500 C 487.599 1207.050, 487.045 1208.741, 486.771 1210.259 L 486.274 1213.017 540.366 1212.759 L 594.457 1212.500 595.479 1207.500 C 596.040 1204.750, 596.792 1202.050, 597.148 1201.500 C 597.505 1200.950, 598.337 1196.900, 598.997 1192.500 C 599.657 1188.100, 600.538 1184.050, 600.955 1183.500 C 601.372 1182.950, 602.245 1179.575, 602.896 1176 C 603.546 1172.425, 604.587 1168.487, 605.208 1167.250 L 606.338 1165 651.669 1165 L 697 1165 697 1122 L 697 1079 662.469 1079 C 632.036 1079, 627.866 1078.814, 627.336 1077.433 C 627.005 1076.570, 627.227 1074.883, 627.830 1073.683 C 628.432 1072.482, 629.673 1067.225, 630.588 1062 C 631.502 1056.775, 632.592 1052.050, 633.009 1051.500 C 633.426 1050.950, 634.345 1047.217, 635.052 1043.205 C 635.758 1039.193, 636.711 1035.679, 637.168 1035.396 C 637.626 1035.113, 638 1033.784, 638 1032.441 L 638 1030 681.500 1030 L 725 1030 725.002 1008.750 C 725.004 997.063, 725.300 977.712, 725.662 965.750 L 726.319 944 693.051 944 L 659.783 944 660.323 941.750 C 660.620 940.513, 661.178 937.700, 661.562 935.500 C 661.946 933.300, 662.593 931.050, 662.999 930.500 C 663.404 929.950, 664.305 926.350, 665 922.500 C 665.695 918.650, 666.608 915.050, 667.029 914.500 C 667.451 913.950, 668.353 910.013, 669.035 905.750 C 669.717 901.487, 670.663 898, 671.137 898 C 671.612 898, 672 897.100, 672 896 C 672 894.025, 671.333 894, 618.061 894 L 564.123 894 563.435 898.750 C 563.057 901.362, 562.414 903.950, 562.006 904.500 C 561.597 905.050, 560.695 908.650, 560 912.500 C 559.305 916.350, 558.392 919.950, 557.971 920.500 C 557.549 921.050, 556.647 924.987, 555.965 929.250 C 555.283 933.513, 554.366 937, 553.926 937 C 553.486 937, 552.986 938.462, 552.813 940.250 L 552.500 943.500 514.250 943.762 L 476 944.024 476 941.712 C 476 940.440, 476.390 938.972, 476.866 938.450 C 477.342 937.927, 478.288 933.900, 478.968 929.500 C 479.648 925.100, 480.549 921.050, 480.971 920.500 C 481.392 919.950, 482.305 916.350, 483 912.500 C 483.695 908.650, 484.612 905.050, 485.038 904.500 C 485.464 903.950, 486.131 901.362, 486.520 898.750 L 487.227 894 434.236 894 C 393.038 894, 381.024 894.278, 380.254 895.250 M 732.703 922.750 C 732.475 923.163, 732.253 988.638, 732.209 1068.250 L 732.130 1213 789.565 1213 L 847 1213 847 1164 L 847 1115 871.802 1115 L 896.603 1115 909.213 1127 C 916.148 1133.600, 922.048 1139, 922.324 1139 C 922.599 1139, 927.121 1143.275, 932.371 1148.500 C 937.622 1153.725, 942.213 1158, 942.574 1158 C 942.936 1158, 951.446 1165.875, 961.486 1175.500 C 971.526 1185.125, 979.985 1193, 980.284 1193 C 980.583 1193, 984.804 1196.938, 989.666 1201.750 C 994.527 1206.563, 999.510 1211.063, 1000.738 1211.750 C 1002.472 1212.720, 1019.628 1212.992, 1077.236 1212.964 L 1151.500 1212.927 1115.500 1177.507 C 1095.700 1158.026, 1079.137 1142.067, 1078.692 1142.043 C 1078.248 1142.020, 1069.764 1134.013, 1059.839 1124.250 C 1049.914 1114.487, 1032.909 1097.950, 1022.051 1087.500 C 1011.193 1077.050, 1002.352 1068.275, 1002.405 1068 C 1002.586 1067.049, 1073.790 998, 1074.589 998 C 1075.031 998, 1082.922 990.398, 1092.125 981.107 C 1101.328 971.816, 1109.294 964.053, 1109.828 963.857 C 1111.688 963.172, 1151.842 923.175, 1151.257 922.590 C 1150.932 922.265, 1117.329 922, 1076.583 921.999 L 1002.500 921.998 999.500 924.916 C 997.850 926.521, 987.050 936.652, 975.500 947.428 C 963.950 958.205, 950.812 970.617, 946.304 975.011 C 941.796 979.405, 937.803 983, 937.431 983 C 937.060 983, 928.316 991.100, 918 1001 C 907.684 1010.900, 898.932 1019, 898.551 1019 C 898.169 1019, 897.182 1019.675, 896.357 1020.500 C 895.107 1021.750, 890.865 1022, 870.929 1022 L 847 1022 847 972 L 847 922 790.059 922 C 758.741 922, 732.931 922.337, 732.703 922.750 M 1166.417 923.357 C 1166.130 924.103, 1166.078 989.916, 1166.301 1069.607 L 1166.707 1214.500 1299.550 1214.754 C 1387.442 1214.922, 1432.732 1214.668, 1433.396 1214.004 C 1433.948 1213.452, 1436.752 1213, 1439.628 1213 C 1446.099 1213, 1460.148 1211.101, 1461.500 1210.044 C 1462.050 1209.614, 1464.864 1208.708, 1467.753 1208.030 C 1470.642 1207.353, 1473.256 1206.394, 1473.562 1205.900 C 1473.868 1205.405, 1474.798 1205, 1475.630 1205 C 1477.826 1205, 1498 1195.007, 1498 1193.919 C 1498 1193.414, 1498.520 1193, 1499.156 1193 C 1499.791 1193, 1501.786 1191.875, 1503.589 1190.500 C 1505.392 1189.125, 1507.187 1188, 1507.578 1188 C 1508.799 1188, 1526.480 1170.769, 1530.797 1165.372 C 1535.249 1159.806, 1540 1153.112, 1540 1152.404 C 1540 1152.011, 1541.051 1150.296, 1542.335 1148.594 C 1546.122 1143.578, 1555.663 1123.040, 1556.666 1117.750 C 1557.004 1115.962, 1557.626 1114.050, 1558.047 1113.500 C 1558.468 1112.950, 1559.342 1109.575, 1559.989 1106 C 1560.637 1102.425, 1561.692 1098.419, 1562.333 1097.099 C 1563.934 1093.804, 1563.970 1043.893, 1562.373 1041.904 C 1561.754 1041.132, 1560.923 1037.800, 1560.527 1034.500 C 1560.131 1031.200, 1559.466 1028.050, 1559.048 1027.500 C 1558.630 1026.950, 1557.740 1024.256, 1557.070 1021.513 C 1556.400 1018.771, 1555.516 1016.071, 1555.106 1015.513 C 1554.696 1014.956, 1553.723 1012.475, 1552.945 1010 C 1552.166 1007.525, 1549.618 1001.900, 1547.283 997.500 C 1544.948 993.100, 1542.348 988.038, 1541.505 986.250 C 1540.663 984.462, 1539.529 983, 1538.987 983 C 1538.444 983, 1538 982.486, 1538 981.858 C 1538 981.230, 1535.975 978.345, 1533.500 975.448 C 1531.025 972.551, 1529 969.862, 1529 969.473 C 1529 968.558, 1515.536 955, 1514.628 955 C 1514.250 955, 1511.056 952.638, 1507.532 949.750 C 1499.111 942.850, 1489.974 937.145, 1486.108 936.372 C 1484.398 936.030, 1483 935.428, 1483 935.035 C 1483 934.642, 1481.088 933.709, 1478.750 932.962 C 1476.412 932.215, 1473.600 931.068, 1472.500 930.414 C 1471.400 929.760, 1468.700 928.909, 1466.500 928.523 C 1464.300 928.137, 1462.050 927.458, 1461.500 927.015 C 1460.079 925.869, 1447.133 924, 1440.617 924 C 1437.593 924, 1434.840 923.550, 1434.500 923 C 1434.093 922.341, 1388.312 922, 1300.410 922 C 1188.945 922, 1166.851 922.224, 1166.417 923.357 M 1596.462 923.250 C 1596.200 923.938, 1596.102 989.750, 1596.243 1069.500 L 1596.500 1214.500 1653.750 1214.758 L 1711 1215.016 1711 1179.008 L 1711 1143 1799.928 1143 C 1883.977 1143, 1903.327 1142.468, 1904.995 1140.112 C 1905.273 1139.720, 1907.975 1138.842, 1911 1138.162 C 1914.025 1137.482, 1920.701 1134.805, 1925.835 1132.213 C 1939.173 1125.479, 1940 1124.996, 1940 1123.945 C 1940 1123.425, 1940.686 1123, 1941.524 1123 C 1943.534 1123, 1967 1099.647, 1967 1097.647 C 1967 1096.796, 1967.563 1095.740, 1968.250 1095.300 C 1969.714 1094.363, 1970.851 1092.443, 1976.722 1081 C 1979.120 1076.325, 1981.579 1070.475, 1982.185 1068 C 1982.792 1065.525, 1983.635 1063.050, 1984.057 1062.500 C 1987.733 1057.720, 1987.719 1009.533, 1984.041 1004.500 C 1983.639 1003.950, 1982.712 1001.250, 1981.981 998.500 C 1981.249 995.750, 1980.099 992.600, 1979.424 991.500 C 1978.749 990.400, 1977.891 988.038, 1977.519 986.250 C 1977.146 984.462, 1976.539 982.996, 1976.171 982.992 C 1975.802 982.988, 1974.996 981.975, 1974.381 980.742 C 1971.036 974.039, 1969.763 972, 1968.927 972 C 1968.417 972, 1968 971.472, 1968 970.828 C 1968 970.183, 1965.750 967.068, 1963 963.907 C 1960.250 960.745, 1958 957.903, 1958 957.590 C 1958 956.616, 1954.601 953, 1953.685 953 C 1953.206 953, 1950.044 950.487, 1946.657 947.416 C 1943.271 944.345, 1939.150 941.187, 1937.500 940.399 C 1933.557 938.514, 1928.628 935.656, 1928 934.891 C 1927.725 934.556, 1925.813 933.678, 1923.750 932.940 C 1921.688 932.202, 1920 931.289, 1920 930.910 C 1920 930.532, 1918.537 929.945, 1916.750 929.606 C 1914.963 929.267, 1912.234 928.328, 1910.686 927.520 C 1909.138 926.713, 1905.538 925.755, 1902.686 925.393 C 1899.834 925.030, 1896.960 924.308, 1896.301 923.787 C 1895.641 923.266, 1893.298 922.970, 1891.094 923.129 C 1888.889 923.288, 1886.766 923.099, 1886.376 922.709 C 1885.986 922.319, 1820.703 922, 1741.302 922 C 1626.730 922, 1596.839 922.258, 1596.462 923.250 M 1711 1033 L 1711 1057 1781.875 1057 C 1820.856 1057, 1854.214 1056.707, 1856.004 1056.349 C 1860.010 1055.548, 1871 1045.152, 1871 1042.163 C 1871 1041.038, 1871.450 1039.840, 1872 1039.500 C 1873.227 1038.742, 1873.339 1028.328, 1872.129 1027.580 C 1871.650 1027.284, 1870.995 1025.723, 1870.672 1024.112 C 1869.860 1020.050, 1860.940 1011.355, 1856.249 1010.052 C 1853.814 1009.376, 1827.698 1009.009, 1781.750 1009.006 L 1711 1009 1711 1033 M 1281.241 1067.750 L 1281.500 1120.500 1347.500 1120.632 C 1383.800 1120.705, 1414.400 1120.432, 1415.500 1120.026 C 1424.405 1116.736, 1431.248 1112.509, 1435.887 1107.433 C 1438.699 1104.356, 1441 1101.248, 1441 1100.526 C 1441 1099.805, 1441.650 1098.964, 1442.445 1098.660 C 1443.239 1098.355, 1444.190 1096.506, 1444.556 1094.553 C 1444.923 1092.599, 1445.582 1091, 1446.020 1091 C 1449.311 1091, 1449.884 1054.948, 1446.706 1047.910 C 1445.859 1046.035, 1444.566 1042.747, 1443.833 1040.604 C 1442.330 1036.213, 1431.752 1024.247, 1427.375 1021.987 C 1425.794 1021.171, 1424.275 1020.238, 1424 1019.914 C 1423.110 1018.864, 1414.227 1017, 1410.116 1017 C 1407.917 1017, 1405.840 1016.550, 1405.500 1016 C 1405.099 1015.351, 1383.153 1015, 1342.932 1015 L 1280.982 1015 1281.241 1067.750 M 454.282 1031.250 C 453.752 1031.938, 452.745 1035.875, 452.043 1040 C 451.341 1044.125, 450.416 1047.950, 449.986 1048.500 C 449.556 1049.050, 448.647 1052.987, 447.965 1057.250 C 447.283 1061.513, 446.399 1065, 445.999 1065 C 445.599 1065, 444.994 1067.025, 444.655 1069.499 C 444.316 1071.974, 443.755 1075.129, 443.408 1076.511 L 442.777 1079.024 481.139 1078.762 L 519.500 1078.500 521 1071.500 C 521.825 1067.650, 522.778 1064.050, 523.117 1063.500 C 523.457 1062.950, 524.304 1059.350, 524.999 1055.500 C 525.695 1051.650, 526.590 1048.050, 526.988 1047.500 C 527.387 1046.950, 528.253 1043.575, 528.914 1040 C 529.574 1036.425, 530.344 1032.713, 530.624 1031.750 C 531.104 1030.105, 528.856 1030, 493.190 1030 C 464.014 1030, 455.022 1030.289, 454.282 1031.250" stroke="none" fill="black" fill-rule="evenodd"/>
</svg>